HIERARCHY
ROOT Hips
{
	OFFSET 0.000000 0.000000 0.000000
	CHANNELS 6 Xposition Yposition Zposition Zrotation Yrotation Xrotation 
	JOINT LHipJoint
	{
		OFFSET 0.000000 0.000000 0.000000
		CHANNELS 3 Zrotation Yrotation Xrotation
		JOINT LeftUpLeg
		{
			OFFSET 1.363060 -1.794630 0.839290
			CHANNELS 3 Zrotation Yrotation Xrotation
			JOINT LeftLeg
			{
				OFFSET 2.448110 -6.726130 0.000000
				CHANNELS 3 Zrotation Yrotation Xrotation
				JOINT LeftFoot
				{
					OFFSET 2.562200 -7.039590 0.000000
					CHANNELS 3 Zrotation Yrotation Xrotation
					JOINT LeftToeBase
					{
						OFFSET 0.157640 -0.433110 2.322550
						CHANNELS 3 Zrotation Yrotation Xrotation
						End Site
						{
							OFFSET 0.000000 0.000000 0.000000
						}
					}
				}
			}
		}
	}
	JOINT RHipJoint
	{
		OFFSET 0.000000 0.000000 0.000000
		CHANNELS 3 Zrotation Yrotation Xrotation
		JOINT RightUpLeg
		{
			OFFSET -1.305520 -1.794630 0.839290
			CHANNELS 3 Zrotation Yrotation Xrotation
			JOINT RightLeg
			{
				OFFSET -2.542530 -6.985550 0.000000
				CHANNELS 3 Zrotation Yrotation Xrotation
				JOINT RightFoot
				{
					OFFSET -2.568260 -7.056230 0.000000
					CHANNELS 3 Zrotation Yrotation Xrotation
					JOINT RightToeBase
					{
						OFFSET -0.164730 -0.452590 2.363150
						CHANNELS 3 Zrotation Yrotation Xrotation
						End Site
						{
							OFFSET 0.000000 0.000000 0.000000
						}
					}
				}
			}
		}
	}
	JOINT LowerBack
	{
		OFFSET 0.000000 0.000000 0.000000
		CHANNELS 3 Zrotation Yrotation Xrotation
		JOINT Spine
		{
			OFFSET 0.028270 2.035590 -0.193380
			CHANNELS 3 Zrotation Yrotation Xrotation
			JOINT Spine1
			{
				OFFSET 0.056720 2.048850 -0.042750
				CHANNELS 3 Zrotation Yrotation Xrotation
				JOINT Neck
				{
					OFFSET 0.000000 0.000000 0.000000
					CHANNELS 3 Zrotation Yrotation Xrotation
					JOINT Neck1
					{
						OFFSET -0.054170 1.746240 0.172020
						CHANNELS 3 Zrotation Yrotation Xrotation
						JOINT Head
						{
							OFFSET 0.104070 1.761360 -0.123970
							CHANNELS 3 Zrotation Yrotation Xrotation
							End Site
							{
								OFFSET 0.000000 0.000000 0.000000
							}
						}
					}
				}
				JOINT LeftShoulder
				{
					OFFSET 0.000000 0.000000 0.000000
					CHANNELS 3 Zrotation Yrotation Xrotation
					JOINT LeftArm
					{
						OFFSET 3.362410 1.200890 -0.311210
						CHANNELS 3 Zrotation Yrotation Xrotation
						JOINT LeftForeArm
						{
							OFFSET 4.983000 -0.000000 -0.000000
							CHANNELS 3 Zrotation Yrotation Xrotation
							JOINT LeftHand
							{
								OFFSET 3.483560 -0.000000 -0.000000
								CHANNELS 3 Zrotation Yrotation Xrotation
								JOINT LeftFingerBase
								{
									OFFSET 0.000000 0.000000 0.000000
									CHANNELS 3 Zrotation Yrotation Xrotation
									JOINT LeftHandIndex1
									{
										OFFSET 0.715260 -0.000000 -0.000000
										CHANNELS 3 Zrotation Yrotation Xrotation
										End Site
										{
											OFFSET 0.000000 0.000000 0.000000
										}
									}
								}
								JOINT LThumb
								{
									OFFSET 0.000000 0.000000 0.000000
									CHANNELS 3 Zrotation Yrotation Xrotation
									End Site
									{
										OFFSET 0.000000 0.000000 0.000000
									}
								}
							}
						}
					}
				}
				JOINT RightShoulder
				{
					OFFSET 0.000000 0.000000 0.000000
					CHANNELS 3 Zrotation Yrotation Xrotation
					JOINT RightArm
					{
						OFFSET -3.136600 1.374050 -0.404650
						CHANNELS 3 Zrotation Yrotation Xrotation
						JOINT RightForeArm
						{
							OFFSET -5.241900 -0.000000 -0.000000
							CHANNELS 3 Zrotation Yrotation Xrotation
							JOINT RightHand
							{
								OFFSET -3.444170 -0.000000 -0.000000
								CHANNELS 3 Zrotation Yrotation Xrotation
								JOINT RightFingerBase
								{
									OFFSET 0.000000 0.000000 0.000000
									CHANNELS 3 Zrotation Yrotation Xrotation
									JOINT RightHandIndex1
									{
										OFFSET -0.622530 -0.000000 -0.000000
										CHANNELS 3 Zrotation Yrotation Xrotation
										End Site
										{
											OFFSET 0.000000 0.000000 0.000000
										}
									}
								}
								JOINT RThumb
								{
									OFFSET 0.000000 0.000000 0.000000
									CHANNELS 3 Zrotation Yrotation Xrotation
									End Site
									{
										OFFSET 0.000000 0.000000 0.000000
									}
								}
							}
						}
					}
				}
			}
		}
	}
}
MOTION
Frames: 4
Frame Time: 0.008333
52.252701 17.149026 -7.956392 -54.105821 -87.400353 53.151489 3.913981 1.682945 -0.616258 -21.695426 1.263870 -5.580160 1.116862 8.124932 24.685492 0.080783 3.625672 -12.981056 0.082900 -1.857600 -5.112300 -7.219390 -2.233001 -2.057551 31.777432 1.928293 -6.077572 -3.528623 -11.045315 33.198719 -1.770478 -1.204410 -25.533616 -1.022900 -6.434000 18.049000 2.234222 -0.140286 3.304039 0.701236 -0.108937 -1.859300 -0.131350 -0.363937 3.245133 -4.588354 -3.315910 -11.082436 7.265396 -4.410131 5.373182 2.926000 -1.899000 3.586200 -7.835914 -7.804691 1.016888 -78.666092 -1.409102 20.305869 11.609435 -19.391251 -3.027539 -1.383443 -0.793233 -9.120209 17.368695 15.617937 5.402800 -7.125000 0.000000 0.000000 -8.440700 46.739200 -0.364800 8.676281 7.450431 0.873150 76.143899 -4.102921 20.394262 -14.329039 24.537926 -3.957314 0.573450 -0.686548 -4.674924 -23.638946 1.997066 -1.247600 7.125000 0.000000 0.000000 1.866500 -26.928900 0.819200 
52.253734 17.149232 -7.957012 -54.185349 -87.406534 53.229543 3.914415 1.683316 -0.615571 -21.700023 1.240618 -5.568051 1.115331 8.122273 24.677656 0.080647 3.633364 -12.993939 0.080400 -1.828600 -5.032100 -7.219076 -2.231956 -2.056491 31.777534 1.939114 -6.080023 -3.529174 -11.045319 33.199704 -1.759866 -1.278019 -25.515420 -0.996200 -6.352100 17.809500 2.226136 -0.140146 3.314095 0.703304 -0.108746 -1.861192 -0.116111 -0.363603 3.221046 -4.599701 -3.308930 -11.037471 7.260032 -4.400952 5.368548 2.924500 -1.896100 3.571900 -7.830613 -7.805475 1.015194 -78.715131 -1.384157 20.273848 11.621145 -19.404147 -3.031255 -1.382213 -0.790792 -9.118526 17.381300 15.601478 5.400200 -7.125000 0.000000 0.000000 -8.425600 46.721600 -0.360500 8.677004 7.450036 0.873857 76.142383 -4.127935 20.414312 -14.328854 24.537205 -3.957237 0.571679 -0.688416 -4.679950 -23.657709 2.057549 -1.276500 7.125000 0.000000 0.000000 1.853600 -26.860300 0.816500 
52.253941 17.148509 -7.957219 -54.390757 -87.420578 53.413701 3.917047 1.685355 -0.617760 -21.707725 1.260201 -5.541297 1.116781 8.123474 24.684320 0.088395 3.597884 -13.019917 0.075200 -1.769300 -4.868400 -7.216914 -2.230677 -2.062090 31.764677 1.915392 -6.056519 -3.528754 -11.043824 33.197214 -1.764500 -1.233229 -25.512569 -1.004300 -6.376900 17.882000 2.215973 -0.141699 3.321711 0.703552 -0.110497 -1.852122 -0.105013 -0.366421 3.267543 -4.615124 -3.305688 -11.093734 7.271189 -4.392777 5.376990 2.934100 -1.890200 3.588600 -7.834017 -7.802859 1.015768 -78.740310 -1.440308 20.227777 11.612331 -19.390222 -3.029567 -1.385257 -0.791004 -9.109642 17.405467 15.637513 5.420000 -7.125000 0.000000 0.000000 -8.409500 46.761700 -0.368100 8.679444 7.447417 0.875888 76.144825 -4.110740 20.573662 -14.165116 24.364523 -3.905598 0.534774 -0.733173 -5.495158 -23.990484 3.659689 -2.042500 7.125000 0.000000 0.000000 1.649400 -25.041200 0.796500 
52.254561 17.149026 -7.957736 -54.505550 -87.415222 53.524315 3.917623 1.684726 -0.617741 -21.698854 1.257693 -5.560147 1.117383 8.124488 24.685818 0.076410 3.657165 -12.989401 0.082000 -1.846600 -5.081900 -7.215944 -2.230209 -2.061912 31.775154 1.920837 -6.049604 -3.527997 -11.042674 33.193486 -1.764194 -1.242998 -25.518075 -1.004800 -6.378500 17.886500 2.224278 -0.139572 3.338993 0.702937 -0.107189 -1.852334 -0.116813 -0.363849 3.251950 -4.585719 -3.303752 -11.070368 7.268958 -4.395049 5.355877 2.925400 -1.891600 3.569800 -7.829289 -7.801707 1.015904 -78.741319 -1.382904 20.366753 11.673237 -19.466924 -3.050863 -1.383834 -0.797131 -9.243532 17.430693 15.665053 5.437800 -7.125000 0.000000 0.000000 -8.392900 46.796200 -0.374600 8.677714 7.447098 0.876527 76.164977 -4.102876 20.529535 -14.245520 24.449445 -3.931354 0.554764 -0.712817 -5.149353 -23.891973 2.878410 -1.673000 7.125000 0.000000 0.000000 1.696600 -25.924300 0.784500 
